<svg width="100" height="26" viewBox="0 0 100 26" fill="none" xmlns="http://www.w3.org/2000/svg">
<g clip-path="url(#clip0_134_1848)">
<path d="M33.8441 17.8943V17.9192H36.8588V3.96133H33.9189L30.9791 11.8626L28.1533 3.99934H24.7812C24.7265 3.9447 24.7788 17.2707 24.7812 17.8955H27.7768V11.2984L29.5953 17.8955H32.1752L33.8441 11.7878V17.8955V17.8943Z" fill="white"/>
<path d="M12.7583 3.96133V6.82038V9.83027V12.2391V15.1362V17.8943H23.6861V15.1362H16.4892V12.2391H22.2168V9.83027H16.4892V6.82038H23.6861V3.96133H16.4892H12.7583Z" fill="white"/>
<path d="M41.4187 17.8943V9.49175L45.772 17.8943H49.5967V3.96133H46.5821V12.5016L41.5327 4.03617H37.9717C38.0228 3.98509 37.9824 15.5792 37.9729 17.8943H41.4199H41.4187Z" fill="white"/>
<path d="M74.0088 12.5016L68.9595 4.03617H65.3984C65.4495 3.98509 65.4091 15.5792 65.3996 17.8943H68.8466V9.49175L73.1999 17.8943H77.0247V3.96133H74.01V12.5016H74.0088Z" fill="white"/>
<path d="M77.9531 3.96133V6.4189H80.6661V18.0831L84.5347 23.7014V6.4189H87.2489V3.96133H77.9531Z" fill="white"/>
<path d="M57.0561 12.548L55.9325 14.0482L56.5489 14.9592L57.0051 15.1041L57.4481 14.3368L57.1429 13.9603L56.8281 14.2002L56.9694 14.6551L56.4325 14.1919L57.1868 13.4091L57.8829 14.2929L57.1571 15.5531L56.4907 15.451L55.67 14.3986L55.5274 14.5898L55.5132 14.6444L55.9681 17.475L57.1286 18.5214L58.1857 17.7042L58.2368 17.3883L57.7237 16.6293L57.2664 16.4844L56.8245 17.2517L57.1286 17.6294L57.4434 17.3883L57.3032 16.9333L57.8389 17.3966L57.0846 18.1794L56.3886 17.2956L57.1143 16.0354L57.7819 16.1375L58.3271 16.8371L58.6941 14.5732L57.1773 12.548H57.0561Z" fill="white"/>
<path d="M54.9433 3.96133L50.3916 17.8943H53.784L57.016 8.09964L60.7493 17.8943H64.5241L59.3892 3.96133H54.9433Z" fill="white"/>
<path d="M96.7134 1.3161V25.1743L100 20.1772V3.40188L96.7134 1.3161Z" fill="white"/>
<path d="M92.0498 18.7008L95.3365 23.6979V0L92.0498 1.92543V18.7008Z" fill="white"/>
<path d="M0 3.96133V18.0582H3.84373V12.2391H8.05212V24.7182L11.707 21.0681V12.6145L10.0868 10.9967L11.707 9.37891V5.99248L9.67229 3.96133H0ZM8.064 9.78038H3.66794V6.39396H8.064V9.78038Z" fill="white"/>
</g>
<defs>
<clipPath id="clip0_134_1848">
<rect width="100" height="25.1743" fill="white"/>
</clipPath>
</defs>
</svg>